<?xml version="1.0" encoding="UTF-8" standalone="no"?>
<svg xmlns:svg="http://www.w3.org/2000/svg" xmlns="http://www.w3.org/2000/svg" version="1.1" width="800px" height="627px" viewBox="0 0 370 290" id="svg2" xml:space="preserve">
<path d="m 141.718,197.051 c -0.035,-1.093 -0.367,-2.157 -0.96,-3.074 L 116.795,156.939 79.292,137.087 22.453,244.437 c -1.846,3.501 -2.818,7.396 -2.818,11.351 0,8.989 4.965,17.223 12.91,21.429 L 92.482,164 l 25.194,38.948 1.885,50.925 c 0.482,13.031 11.188,23.343 24.229,23.343 0.416,0 0.49,0 0.902,-0.011 l -2.974,-80.154 M 91.664,107.233 86.876,116.272 72.565,104.44 66.148,116.574 C 59.197,112.89 54.849,105.679 54.849,97.815 c 0,-3.456 0.845,-6.866 2.467,-9.925 L 74.782,54.921 c 2.621,-4.965 7.773,-8.07 13.387,-8.07 h 53.489 c 13.393,0 24.238,10.861 24.238,24.256 0,0.523 -0.005,1.025 -0.047,1.552 l -5.916,90.966 56.878,47.296 c -2.202,2.608 -4.995,4.639 -8.155,5.937 l -49.52,-40.902 -0.668,10.28 c -11.156,-0.718 -19.841,-9.984 -19.841,-21.172 0,-0.47 0.018,-0.894 0.04,-1.359 l 0.292,-4.422 -13.898,-11.481 4.785,-9.029 9.906,8.177 2.454,-38.002 -22.571,42.634 L 82.13,131.718 115.824,68.075 H 91.821 l -14.478,27.334 14.321,11.824 0,0 z m 92.421,-95.236 c -12.559,0 -22.733,10.176 -22.733,22.731 0,12.56 10.174,22.737 22.733,22.737 12.559,0 22.731,-10.177 22.731,-22.737 0.001,-12.556 -10.172,-22.731 -22.731,-22.731 z m 23.972,208.313 c 4.311,-1.396 8.146,-3.971 11.07,-7.426 l 23.647,-27.986 c 5.759,-6.807 14.226,-10.733 23.145,-10.733 9.426,0 18.3,4.368 24.041,11.836 l 62.61,81.464 c 0.814,1.063 1.25,2.354 1.25,3.695 0,3.348 -2.706,6.055 -6.054,6.055 H 165.894 c -3.339,0 -6.055,-2.707 -6.055,-6.055 0,-1.443 0.5,-2.818 1.427,-3.911 l 34.774,-41.143 c 1.466,-1.733 3.382,-3.016 5.538,-3.72 l 6.479,-2.076 0,0 z"
 style="fill:#000000;stroke:none;" />
</svg>